<?xml version="1.0" encoding="UTF-8"?>
<!-- Generated by Pixelmator Pro 3.7 -->
<svg width="616" height="493" viewBox="0 0 616 493" xmlns="http://www.w3.org/2000/svg">
    <path id="Path" fill="#ffffff" stroke="none" visibility="hidden" d="M 83 1 C 260.965027 1 438.930054 1 616.94751 1 C 616.94751 165.266052 616.94751 329.532104 616.94751 493.899109 C 411.774323 493.899109 206.548599 493.899109 1.161438 493.899109 C 1.161438 329.666779 1.161438 165.333435 1.161438 1 C 14.410838 1 27.741535 1 41.274879 1.318329 C 36.871185 2.112396 32.227184 2.361176 27.6674 3.117584 C 20.979521 4.22702 14.326977 5.59259 7.724484 7.128815 C 6.69103 7.369293 6.001853 9.089386 5.153483 10.125305 C 6.30161 10.760468 7.39616 11.551727 8.618317 11.971191 C 9.330885 12.215729 10.280357 11.983246 11.067855 11.765259 C 34.760761 5.207428 58.773518 4.438721 83.342651 7.82608 C 84.119102 7.927429 84.568726 7.941742 85.295166 8.211853 C 99.493118 11.433228 112.907722 15.96106 124.793465 23.834686 C 136.813263 31.797089 148.284683 40.587311 160.098038 49.234711 C 160.394928 49.728912 160.654175 49.913177 161.114639 50.310791 C 163.821075 53.093781 166.390411 55.573303 168.974548 58.023468 C 168.989365 57.99408 168.940262 58.038574 169.004745 58.37384 C 171.149612 61.259491 173.184891 63.848297 175.319016 66.352905 C 181.193909 73.247681 187.110199 80.107147 193.100372 87.200745 C 193.356415 87.706085 193.591415 87.912476 193.956802 88.352234 C 194.668854 89.466736 195.319763 90.269043 196.058472 91.286133 C 196.326065 91.769135 196.569962 91.951782 196.944672 92.385895 C 198.332123 94.494476 199.652847 96.266052 200.985168 98.017212 C 200.996765 97.996796 200.957962 98.024017 201.004211 98.33728 C 201.687317 99.450958 202.324173 100.251373 202.975601 101.023071 C 202.990173 100.994385 202.941284 101.036835 202.996399 101.382172 C 208.026917 109.829041 213.002319 117.930603 217.988251 126.015076 C 217.998795 125.998016 217.964554 126.019592 218.006958 126.378021 C 223.706757 138.467651 229.338608 150.211243 235.036194 161.922882 C 236.895569 165.744904 238.926224 169.483582 240.883179 173.449341 C 240.887817 173.638245 241.00177 173.998627 241.031555 174.365692 C 243.701431 180.490906 246.341537 186.249084 249.007614 192.299438 C 249.346756 193.062622 249.659943 193.533691 249.996216 194.305511 C 250.334824 195.096222 250.65033 195.58609 250.987549 196.309265 C 251.009277 196.542572 251.15506 196.987915 251.166748 197.348297 C 253.11142 201.810059 255.044403 205.911438 256.998749 210.30481 C 257.324524 211.07428 257.628937 211.551788 257.948853 212.405914 C 258.066406 213.268127 258.091003 213.786682 258.281708 214.234497 C 266.066162 232.513123 273.795197 250.815887 281.69516 269.044525 C 285.235291 277.213104 289.121674 285.231567 292.864441 293.602234 C 292.968842 294.253815 293.059692 294.621368 293.161438 295.349487 C 296.399445 302.576965 299.626587 309.443878 302.86261 316.595947 C 302.956329 317.251465 303.041138 317.621796 303.125 318.312897 C 303.71106 319.503296 304.298096 320.372955 304.901215 321.437286 C 304.917297 321.631958 305.035858 322.004242 305.091003 322.27066 C 305.390167 322.800751 305.634186 323.064453 305.870789 323.501465 C 305.863312 323.674835 305.974609 324.00351 306.009857 324.372498 C 308.325745 328.860718 310.606354 332.97995 312.941467 337.067322 C 312.995941 337.035431 312.873657 337.066681 312.89502 337.367065 C 313.259216 338.133759 313.602051 338.600067 313.973022 339.039856 C 314.001129 339.013336 313.927338 339.036255 314.008545 339.284088 C 314.369537 339.720764 314.649323 339.909607 314.939789 340.05307 C 314.950439 340.007721 314.877625 340.065857 314.908813 340.359802 C 315.296295 341.096405 315.652557 341.539063 316.091492 342.207581 C 316.342804 342.723541 316.5849 342.92572 316.975342 343.373535 C 322.350037 348.162292 327.64978 352.617523 332.979431 357.047791 C 333.009338 357.022858 332.937317 357.050751 333.106506 357.337219 C 334.844543 358.430389 336.413391 359.237061 338.214783 360.305756 C 346.930298 364.411469 355.661346 367.125153 366.043762 366.84494 C 362.538971 358.91449 359.246521 351.694794 356.139984 344.395966 C 341.109711 309.082672 326.352295 273.651245 311.052124 238.455551 C 301.049408 215.445801 291.140411 192.324493 279.619873 170.065552 C 268.338409 148.268494 255.594803 127.169891 242.52623 106.372192 C 228.849106 84.606049 212.072998 65.285675 191.862671 48.697083 C 188.123444 45.464142 184.764801 42.179077 180.902023 39.670258 C 173.45253 34.831909 165.718185 30.432129 158.127136 25.890961 C 158.152344 25.931396 158.143387 25.836487 158.053558 25.510712 C 152.57576 22.298157 147.332764 19.088501 141.770081 16.59082 C 129.665146 11.155579 117.367851 6.178711 103.804024 4.83783 C 103.647865 4.79834 103.334351 4.872437 103.165985 4.670685 C 102.673698 4.363007 102.349777 4.25705 101.689606 4.094238 C 100.899338 4.031067 100.445297 4.024689 99.717239 3.77066 C 97.958344 3.401306 96.473473 3.279602 94.659256 3.100555 C 93.884789 3.035034 93.439667 3.026825 92.712997 2.759796 C 90.618294 2.377991 88.805161 2.255035 86.657509 2.086792 C 85.873589 2.056885 85.424171 2.072296 84.681046 2.02063 C 83.924881 1.635712 83.46244 1.317871 83 1 M 519.78064 484.734863 C 534.444031 489.34491 549.38385 492.357422 564.825073 491.971893 C 566.477295 491.930634 569.267151 490.45874 569.496765 489.260986 C 570.180847 485.691528 567.014526 486.399017 564.791199 486.035004 C 556.139282 484.618561 547.206726 484.021851 538.927124 481.392792 C 513.683838 473.377075 494.099884 456.984985 477.652313 436.828552 C 456.766205 411.232605 441.50293 382.204437 428.16391 352.164307 C 415.071442 322.679413 402.472931 292.975372 389.468292 263.450928 C 387.968048 260.044861 387.947479 257.175873 389.447052 253.981125 C 404.506439 221.897278 419.586578 189.823059 434.568451 157.703003 C 443.496765 138.561401 452.246429 119.336517 461.12973 100.173767 C 461.71759 98.905701 462.759155 97.8479 463.589661 96.692322 C 464.010956 96.867218 464.432251 97.042114 464.853546 97.21701 C 464.616089 102.102692 464.17453 106.988281 464.171661 111.874084 C 464.127258 188.026855 464.144318 264.179626 464.133514 340.332397 C 464.131958 351.234894 460.784485 355.661896 450.373688 358.483582 C 447.69873 359.208588 445.719604 360.186707 446.827606 364.00708 C 469.954498 364.00708 493.08197 364.031158 516.208801 363.916229 C 517.104004 363.911774 518.622986 362.644318 518.715454 361.83548 C 518.817627 360.942169 517.83136 359.470276 516.929443 359.00351 C 514.465149 357.728424 511.464508 357.307922 509.272766 355.723724 C 503.714722 351.706482 501.961395 345.860229 501.966095 339.117462 C 502.02597 253.133209 501.998444 167.148865 501.993469 81.164581 C 501.993408 80.498047 501.959076 79.828979 502.004028 79.165344 C 502.379761 73.618866 504.305298 69.150146 510.133087 67.315582 C 514.883728 65.820129 519.661926 64.384369 524.313782 62.621155 C 525.610779 62.129547 527.591431 60.161255 527.372498 59.576874 C 526.760193 57.94223 525.385986 56.310211 523.87793 55.387268 C 522.760376 54.703339 520.962708 55.073486 519.467957 55.071838 C 505.137268 55.055878 490.794403 55.401581 476.481842 54.891663 C 470.766785 54.68808 468.342682 56.938629 466.181152 61.731232 C 452.23822 92.645996 438.023163 123.437927 423.933777 154.286774 C 412.461792 179.404785 401.04718 204.549011 389.59137 229.674438 C 387.281616 234.740204 384.900818 239.773575 382.110809 245.772095 C 381.007996 243.498138 380.34787 242.248108 379.783691 240.956177 C 375.124847 230.287964 370.510864 219.600037 365.832153 208.940552 C 352.866028 179.399567 339.346954 150.087036 327.062988 120.265442 C 317.416931 96.8479 302.487091 79.779785 277.542816 72.929199 C 272.341766 71.500793 266.799103 71.316406 260.308533 70.403198 C 261.460999 73.649536 261.89621 75.23233 262.565735 76.708893 C 276.168427 106.706848 289.772675 136.704163 303.429077 166.677673 C 317.704285 198.009277 331.91452 229.371368 346.374695 260.617615 C 361.111328 292.461243 375.273804 324.611237 391.230225 355.838898 C 409.096619 390.804443 430.984741 423.178833 460.955688 449.295288 C 478.266785 464.380066 496.947723 477.244537 519.78064 484.734863 M 190.843826 289.500122 C 190.840286 283.503204 191.006836 277.49939 190.762894 271.512268 C 190.6371 268.424835 190.760162 263.690796 189.030563 262.680847 C 186.295502 261.083679 182.009216 261.499451 178.568954 262.11792 C 177.432831 262.322174 176.191772 265.777832 176.171616 267.758759 C 175.980011 286.580444 176.173691 305.406097 175.972275 324.2276 C 175.875015 333.315735 172.640717 341.400085 166.737366 348.405762 C 162.126572 353.877533 156.167938 356.744934 149.307495 358.253601 C 146.811172 358.802551 143.178375 358.952698 144.74234 363.538849 C 145.371307 363.686554 146.003342 363.964111 146.635757 363.964935 C 170.622803 363.996002 194.610016 364.0289 218.596573 363.922668 C 219.69191 363.917816 220.78157 362.629364 221.873871 361.938751 C 220.937363 360.846069 220.211166 359.244781 219.025558 358.754517 C 215.211609 357.17746 210.870407 356.620361 207.376877 354.57132 C 196.783783 348.358307 191.657242 338.378479 191.041092 326.473907 C 190.421921 314.511261 190.865585 302.493622 190.843826 289.500122 Z"/>
    <path id="path1" fill="#ccbea5" stroke="none" d="M 82.531342 1 C 83.46244 1.317871 83.924881 1.635712 84.455139 2.266663 C 83.409966 3.006042 82.296959 3.432343 81.230675 3.840729 C 81.941727 5.393463 82.478775 6.566223 83.015823 7.738983 C 58.773518 4.438721 34.760761 5.207428 11.067855 11.765259 C 10.280357 11.983246 9.330885 12.215729 8.618317 11.971191 C 7.39616 11.551727 6.30161 10.760468 5.153483 10.125305 C 6.001853 9.089386 6.69103 7.369293 7.724484 7.128815 C 14.326977 5.59259 20.979521 4.22702 27.6674 3.117584 C 32.227184 2.361176 36.871185 2.112396 41.738766 1.318329 C 55.354229 1 68.708458 1 82.531342 1 Z"/>
    <path id="path2" fill="#ceba99" stroke="none" d="M 519.417053 484.577881 C 496.947723 477.244537 478.266785 464.380066 460.955688 449.295288 C 430.984741 423.178833 409.096619 390.804443 391.230225 355.838898 C 375.273804 324.611237 361.111328 292.461243 346.374695 260.617615 C 331.91452 229.371368 317.704285 198.009277 303.429077 166.677673 C 289.772675 136.704163 276.168427 106.706848 262.565735 76.708893 C 261.89621 75.23233 261.460999 73.649536 260.308533 70.403198 C 266.799103 71.316406 272.341766 71.500793 277.542816 72.929199 C 302.487091 79.779785 317.416931 96.8479 327.062988 120.265442 C 339.346954 150.087036 352.866028 179.399567 365.832153 208.940552 C 370.510864 219.600037 375.124847 230.287964 379.783691 240.956177 C 380.34787 242.248108 381.007996 243.498138 382.110809 245.772095 C 384.900818 239.773575 387.281616 234.740204 389.59137 229.674438 C 401.04718 204.549011 412.461792 179.404785 423.933777 154.286774 C 438.023163 123.437927 452.23822 92.645996 466.181152 61.731232 C 468.342682 56.938629 470.766785 54.68808 476.481842 54.891663 C 490.794403 55.401581 505.137268 55.055878 519.467957 55.071838 C 520.962708 55.073486 522.760376 54.703339 523.87793 55.387268 C 525.385986 56.310211 526.760193 57.94223 527.372498 59.576874 C 527.591431 60.161255 525.610779 62.129547 524.313782 62.621155 C 519.661926 64.384369 514.883728 65.820129 510.133087 67.315582 C 504.305298 69.150146 502.379761 73.618866 502.004028 79.165344 C 501.959076 79.828979 501.993408 80.498047 501.993469 81.164581 C 501.998444 167.148865 502.02597 253.133209 501.966095 339.117462 C 501.961395 345.860229 503.714722 351.706482 509.272766 355.723724 C 511.464508 357.307922 514.465149 357.728424 516.929443 359.00351 C 517.83136 359.470276 518.817627 360.942169 518.715454 361.83548 C 518.622986 362.644318 517.104004 363.911774 516.208801 363.916229 C 493.08197 364.031158 469.954498 364.00708 446.827606 364.00708 C 445.719604 360.186707 447.69873 359.208588 450.373688 358.483582 C 460.784485 355.661896 464.131958 351.234894 464.133514 340.332397 C 464.144318 264.179626 464.127258 188.026855 464.171661 111.874084 C 464.17453 106.988281 464.616089 102.102692 464.853546 97.21701 C 464.432251 97.042114 464.010956 96.867218 463.589661 96.692322 C 462.759155 97.8479 461.71759 98.905701 461.12973 100.173767 C 452.246429 119.336517 443.496765 138.561401 434.568451 157.703003 C 419.586578 189.823059 404.506439 221.897278 389.447052 253.981125 C 387.947479 257.175873 387.968048 260.044861 389.468292 263.450928 C 402.472931 292.975372 415.071442 322.679413 428.16391 352.164307 C 441.50293 382.204437 456.766205 411.232605 477.652313 436.828552 C 494.099884 456.984985 513.683838 473.377075 538.927124 481.392792 C 547.206726 484.021851 556.139282 484.618561 564.791199 486.035004 C 567.014526 486.399017 570.180847 485.691528 569.496765 489.260986 C 569.267151 490.45874 566.477295 491.930634 564.825073 491.971893 C 549.38385 492.357422 534.444031 489.34491 519.417053 484.577881 Z"/>
    <path id="path3" fill="#ceba98" stroke="none" d="M 83.342651 7.82608 C 82.478775 6.566223 81.941727 5.393463 81.230675 3.840729 C 82.296959 3.432343 83.409966 3.006042 84.748863 2.33371 C 85.424171 2.072296 85.873589 2.056885 86.740906 2.436554 C 89.104065 2.893951 91.049309 2.956299 92.994553 3.018646 C 93.439667 3.026825 93.884789 3.035034 94.738495 3.438202 C 96.761818 3.894897 98.376541 3.956604 99.991264 4.018341 C 100.445297 4.024689 100.899338 4.031067 101.847374 4.30307 C 102.672371 4.669983 103.003357 4.77121 103.334351 4.872437 C 103.334351 4.872437 103.647865 4.79834 104.024239 5.136414 C 106.391411 6.285889 108.315567 7.507263 110.383606 7.843445 C 126.288185 10.428925 140.115799 18.286346 154.439301 24.90329 C 155.575256 25.42807 156.90416 25.535248 158.143387 25.836487 C 158.143387 25.836487 158.152344 25.931396 158.230255 26.220978 C 166.599915 32.370087 174.841614 38.30246 183.2117 44.047821 C 185.975967 45.945251 189.071457 47.360138 192.015503 48.995667 C 212.072998 65.285675 228.849106 84.606049 242.52623 106.372192 C 255.594803 127.169891 268.338409 148.268494 279.619873 170.065552 C 291.140411 192.324493 301.049408 215.445801 311.052124 238.455551 C 326.352295 273.651245 341.109711 309.082672 356.139984 344.395966 C 359.246521 351.694794 362.538971 358.91449 366.043762 366.84494 C 355.661346 367.125153 346.930298 364.411469 338.178162 359.933167 C 336.25174 358.549286 334.594513 357.800018 332.937317 357.050751 C 332.937317 357.050751 333.009338 357.022858 332.990265 356.676788 C 327.614258 351.900482 322.257355 347.470215 316.900421 343.039978 C 316.5849 342.92572 316.342804 342.723541 316.067444 341.905945 C 315.599701 340.940948 315.238647 340.503387 314.877625 340.065857 C 314.877625 340.065857 314.950439 340.007721 314.85376 339.80957 C 314.480469 339.419678 314.203918 339.227966 313.927338 339.036255 C 313.927338 339.036255 314.001129 339.013336 313.971008 338.727844 C 313.585175 337.983795 313.229431 337.525238 312.873657 337.066681 C 312.873657 337.066681 312.995941 337.035431 312.974548 336.6828 C 311.053436 331.979828 310.328674 326.964355 305.974609 324.00351 C 305.974609 324.00351 305.863312 323.674835 305.832031 323.22287 C 305.545807 322.51535 305.290833 322.259796 305.035858 322.004242 C 305.035858 322.004242 304.917297 321.631958 304.934052 321.067322 C 304.342529 319.665802 303.734222 318.828979 303.125946 317.992126 C 303.041138 317.621796 302.956329 317.251465 302.908691 316.163025 C 301.331238 310.881104 299.967102 306.205872 298.004639 301.796906 C 296.894043 299.301697 294.801056 297.243774 293.150513 294.988892 C 293.059692 294.621368 292.968842 294.253815 292.910858 293.157349 C 291.739777 289.13382 290.631226 285.800598 289.314453 282.551727 C 284.867065 271.578644 280.377502 260.622345 275.843201 249.684845 C 271.896729 240.165298 268.016724 230.612976 263.794434 221.215759 C 262.321503 217.937592 259.914032 215.079315 257.93335 212.029297 C 257.628937 211.551788 257.324524 211.07428 257.255432 210.091705 C 255.813538 205.168457 256.704834 199.458618 251.15506 196.987915 C 251.15506 196.987915 251.009277 196.542572 250.983139 195.998871 C 250.629044 194.97168 250.301086 194.488159 249.973114 194.0047 C 249.659943 193.533691 249.346756 193.062622 249.276459 192.082031 C 247.60112 186.553955 245.769989 181.498901 243.69429 176.546387 C 243.257416 175.504059 241.922745 174.838013 241.00177 173.998627 C 241.00177 173.998627 240.887817 173.638245 240.92247 173.028442 C 240.672668 171.163025 240.574387 169.827301 240.074173 168.66449 C 236.192795 159.641693 232.574707 150.481201 228.175186 141.714569 C 225.393158 136.171021 221.409348 131.23053 217.964554 126.019592 C 217.964554 126.019592 217.998795 125.998016 217.992981 125.62854 C 215.122849 119.504913 212.500122 113.611084 209.289551 108.057037 C 207.745651 105.38623 205.092255 103.35675 202.941284 101.036835 C 202.941284 101.036835 202.990173 100.994385 202.985352 100.661835 C 202.306351 99.560852 201.632156 98.79245 200.957962 98.024017 C 200.957962 98.024017 200.996765 97.996796 200.99115 97.641602 C 199.616333 95.540588 198.247147 93.794739 196.877945 92.048889 C 196.569962 91.951782 196.326065 91.769135 196.064178 90.919189 C 195.286621 89.571655 194.591141 88.805847 193.89566 88.040039 C 193.591415 87.912476 193.356415 87.706085 193.093765 86.829041 C 192.276352 84.591125 191.88443 82.671661 190.780487 81.344482 C 184.848831 74.21347 178.783981 67.190979 172.644363 60.23764 C 171.739777 59.213135 170.190994 58.757446 168.940262 58.038574 C 168.940262 58.038574 168.989365 57.99408 168.985626 57.651947 C 167.756424 53.294342 165.421204 50.49527 160.977524 50.007294 C 160.654175 49.913177 160.394928 49.728912 160.096207 48.864838 C 159.848907 47.633881 159.92128 46.779846 159.529938 46.382324 C 148.804993 35.48877 136.156693 26.865845 123.008202 19.590546 C 112.806702 13.945862 100.819572 11.506317 89.574768 7.797943 C 88.220612 7.351349 86.544983 7.879608 85.018349 7.956024 C 84.568726 7.941742 84.119102 7.927429 83.342651 7.82608 Z"/>
    <path id="path4" fill="#cebb9c" stroke="none" d="M 190.843658 290.000092 C 190.865585 302.493622 190.421921 314.511261 191.041092 326.473907 C 191.657242 338.378479 196.783783 348.358307 207.376877 354.57132 C 210.870407 356.620361 215.211609 357.17746 219.025558 358.754517 C 220.211166 359.244781 220.937363 360.846069 221.873871 361.938751 C 220.78157 362.629364 219.69191 363.917816 218.596573 363.922668 C 194.610016 364.0289 170.622803 363.996002 146.635757 363.964935 C 146.003342 363.964111 145.371307 363.686554 144.74234 363.538849 C 143.178375 358.952698 146.811172 358.802551 149.307495 358.253601 C 156.167938 356.744934 162.126572 353.877533 166.737366 348.405762 C 172.640717 341.400085 175.875015 333.315735 175.972275 324.2276 C 176.173691 305.406097 175.980011 286.580444 176.171616 267.758759 C 176.191772 265.777832 177.432831 262.322174 178.568954 262.11792 C 182.009216 261.499451 186.295502 261.083679 189.030563 262.680847 C 190.760162 263.690796 190.6371 268.424835 190.762894 271.512268 C 191.006836 277.49939 190.840286 283.503204 190.843658 290.000092 Z"/>
    <path id="path5" fill="#ccbea5" stroke="none" d="M 85.295166 8.211853 C 86.544983 7.879608 88.220612 7.351349 89.574768 7.797943 C 100.819572 11.506317 112.806702 13.945862 123.008202 19.590546 C 136.156693 26.865845 148.804993 35.48877 159.529938 46.382324 C 159.92128 46.779846 159.848907 47.633881 159.994492 48.64505 C 148.284683 40.587311 136.813263 31.797089 124.793465 23.834686 C 112.907722 15.96106 99.493118 11.433228 85.295166 8.211853 Z"/>
    <path id="path6" fill="#ccbea5" stroke="none" d="M 257.948853 212.405914 C 259.914032 215.079315 262.321503 217.937592 263.794434 221.215759 C 268.016724 230.612976 271.896729 240.165298 275.843201 249.684845 C 280.377502 260.622345 284.867065 271.578644 289.314453 282.551727 C 290.631226 285.800598 291.739777 289.13382 292.897339 292.873291 C 289.121674 285.231567 285.235291 277.213104 281.69516 269.044525 C 273.795197 250.815887 266.066162 232.513123 258.281708 214.234497 C 258.091003 213.786682 258.066406 213.268127 257.948853 212.405914 Z"/>
    <path id="path7" fill="#ccbea5" stroke="none" d="M 218.006958 126.378021 C 221.409348 131.23053 225.393158 136.171021 228.175186 141.714569 C 232.574707 150.481201 236.192795 159.641693 240.074173 168.66449 C 240.574387 169.827301 240.672668 171.163025 240.917831 172.839508 C 238.926224 169.483582 236.895569 165.744904 235.036194 161.922882 C 229.338608 150.211243 223.706757 138.467651 218.006958 126.378021 Z"/>
    <path id="path8" fill="#ccbea5" stroke="none" d="M 158.053558 25.510712 C 156.90416 25.535248 155.575256 25.42807 154.439301 24.90329 C 140.115799 18.286346 126.288185 10.428925 110.383606 7.843445 C 108.315567 7.507263 106.391411 6.285889 104.180397 5.175934 C 117.367851 6.178711 129.665146 11.155579 141.770081 16.59082 C 147.332764 19.088501 152.57576 22.298157 158.053558 25.510712 Z"/>
    <path id="path9" fill="#ccbea5" stroke="none" d="M 191.862671 48.697083 C 189.071457 47.360138 185.975967 45.945251 183.2117 44.047821 C 174.841614 38.30246 166.599915 32.370087 158.205063 26.180542 C 165.718185 30.432129 173.45253 34.831909 180.902023 39.670258 C 184.764801 42.179077 188.123444 45.464142 191.862671 48.697083 Z"/>
    <path id="path10" fill="#ccbea5" stroke="none" d="M 169.004745 58.37384 C 170.190994 58.757446 171.739777 59.213135 172.644363 60.23764 C 178.783981 67.190979 184.848831 74.21347 190.780487 81.344482 C 191.88443 82.671661 192.276352 84.591125 193.00351 86.608887 C 187.110199 80.107147 181.193909 73.247681 175.319016 66.352905 C 173.184891 63.848297 171.149612 61.259491 169.004745 58.37384 Z"/>
    <path id="path11" fill="#ccbea5" stroke="none" d="M 202.996399 101.382172 C 205.092255 103.35675 207.745651 105.38623 209.289551 108.057037 C 212.500122 113.611084 215.122849 119.504913 217.982452 125.64563 C 213.002319 117.930603 208.026917 109.829041 202.996399 101.382172 Z"/>
    <path id="path12" fill="#ccbea5" stroke="none" d="M 316.975342 343.373535 C 322.257355 347.470215 327.614258 351.900482 332.960358 356.701721 C 327.64978 352.617523 322.350037 348.162292 316.975342 343.373535 Z"/>
    <path id="path13" fill="#ccbea5" stroke="none" d="M 293.161407 295.349487 C 294.801056 297.243774 296.894043 299.301697 298.004639 301.796906 C 299.967102 306.205872 301.331238 310.881104 302.89975 315.877869 C 299.626587 309.443878 296.399445 302.576965 293.161407 295.349487 Z"/>
    <path id="path14" fill="#ccbea5" stroke="none" d="M 241.031555 174.365662 C 241.922745 174.838013 243.257416 175.504059 243.69429 176.546387 C 245.769989 181.498901 247.60112 186.553955 249.250488 191.789856 C 246.341537 186.249084 243.701431 180.490906 241.031555 174.365662 Z"/>
    <path id="path15" fill="#ccbea5" stroke="none" d="M 251.166748 197.348297 C 256.704834 199.458618 255.813538 205.168457 257.23407 209.799713 C 255.044403 205.911438 253.11142 201.810059 251.166748 197.348297 Z"/>
    <path id="path16" fill="#ccbea5" stroke="none" d="M 306.009857 324.372498 C 310.328674 326.964355 311.053436 331.979828 312.920044 336.714661 C 310.606354 332.97995 308.325745 328.860718 306.009857 324.372498 Z"/>
    <path id="path17" fill="#ccbea5" stroke="none" d="M 161.114639 50.310791 C 165.421204 50.49527 167.756424 53.294342 168.97081 57.681335 C 166.390411 55.573303 163.821075 53.093781 161.114639 50.310791 Z"/>
    <path id="path18" fill="#ccbea5" stroke="none" d="M 196.944672 92.385895 C 198.247147 93.794739 199.616333 95.540588 200.979538 97.662018 C 199.652847 96.266052 198.332123 94.494476 196.944672 92.385895 Z"/>
    <path id="path19" fill="#ccbea5" stroke="none" d="M 92.712997 2.759796 C 91.049309 2.956299 89.104065 2.893951 87.075424 2.481842 C 88.805161 2.255035 90.618294 2.377991 92.712997 2.759796 Z"/>
    <path id="path20" fill="#ccbea5" stroke="none" d="M 99.717239 3.77066 C 98.376541 3.956604 96.761818 3.894897 95.067848 3.495514 C 96.473473 3.279602 97.958344 3.401306 99.717239 3.77066 Z"/>
    <path id="path21" fill="#ccbea5" stroke="none" d="M 333.106506 357.337219 C 334.594513 357.800018 336.25174 358.549286 337.945557 359.671143 C 336.413391 359.237061 334.844543 358.430389 333.106506 357.337219 Z"/>
    <path id="path22" fill="#ccbea5" stroke="none" d="M 193.956802 88.352234 C 194.591141 88.805847 195.286621 89.571655 195.976379 90.704376 C 195.319763 90.269043 194.668854 89.466736 193.956802 88.352234 Z"/>
    <path id="path23" fill="#ccbea5" stroke="none" d="M 303.125 318.312897 C 303.734222 318.828979 304.342529 319.665802 304.917969 320.87262 C 304.298096 320.372955 303.71106 319.503296 303.125 318.312897 Z"/>
    <path id="path24" fill="#ccbea5" stroke="none" d="M 201.004211 98.33728 C 201.632156 98.79245 202.306351 99.560852 202.970795 100.690552 C 202.324173 100.251373 201.687317 99.450958 201.004211 98.33728 Z"/>
    <path id="path25" fill="#ccbea5" stroke="none" d="M 249.996216 194.305511 C 250.301086 194.488159 250.629044 194.97168 250.961411 195.765564 C 250.65033 195.58609 250.334824 195.096222 249.996216 194.305511 Z"/>
    <path id="path26" fill="#ccbea5" stroke="none" d="M 312.89502 337.367065 C 313.229431 337.525238 313.585175 337.983795 313.942932 338.754395 C 313.602051 338.600067 313.259216 338.133759 312.89502 337.367065 Z"/>
    <path id="path27" fill="#ccbea5" stroke="none" d="M 314.908813 340.359802 C 315.238647 340.503387 315.599701 340.940948 315.984772 341.680115 C 315.652557 341.539063 315.296295 341.096405 314.908813 340.359802 Z"/>
    <path id="path28" fill="#ccbea5" stroke="none" d="M 305.091003 322.27066 C 305.290833 322.259796 305.545807 322.51535 305.839508 323.0495 C 305.634186 323.064453 305.390167 322.800751 305.091003 322.27066 Z"/>
    <path id="path29" fill="#ccbea5" stroke="none" d="M 103.165985 4.670685 C 103.003357 4.77121 102.672371 4.669983 102.183609 4.359924 C 102.349777 4.25705 102.673698 4.363007 103.165985 4.670685 Z"/>
    <path id="path30" fill="#ccbea5" stroke="none" d="M 314.008545 339.284088 C 314.203918 339.227966 314.480469 339.419678 314.843079 339.854919 C 314.649323 339.909607 314.369537 339.720764 314.008545 339.284088 Z"/>
</svg>
